# xmcd CD database file
#
# Track frame offsets:
#	187
#	16152
#	30652
#	47662
#	69410
#	91752
#	106150
#	127080
#	144435
#	161502
#
# Disc length: 2540 seconds
#
# Revision: 5
# Processed by: cddbd v1.5.2PL0 Copyright (c) Steve Scherf et al.
# Submitted via: CDex 1.70beta3
#
DISCID=7709ea0a
DTITLE=ASIA - Alpha
DYEAR=1983
DGENRE=Progressive Rock
TTITLE0=Don't Cry
TTITLE1=The Smile Has Left Your Eyes
TTITLE2=Never In A Million Years
TTITLE3=My Own Time (I'll Do What I Want)
TTITLE4=The Heat Goes On
TTITLE5=Eye To Eye
TTITLE6=The Last To Know
TTITLE7=True Colors
TTITLE8=Midnight Sun
TTITLE9=Open Your Eyes
EXTD=YEAR: 1983
EXTT0=
EXTT1=
EXTT2=
EXTT3=
EXTT4=
EXTT5=
EXTT6=
EXTT7=
EXTT8=
EXTT9=
PLAYORDER=
